<svg width="580" height="400" xmlns="http://www.w3.org/2000/svg">
 <!-- Created with Method Draw - http://github.com/duopixel/Method-Draw/ -->

 <g>
  <title>background</title>
  <rect fill="#fff" id="canvas_background" height="402" width="582" y="-1" x="-1"/>
  <g display="none" overflow="visible" y="0" x="0" height="100%" width="100%" id="canvasGrid">
   <rect fill="url(#gridpattern)" stroke-width="0" y="0" x="0" height="100%" width="100%"/>
  </g>
 </g>
 <g>
  <title>Layer 1</title>
  <metadata transform="matrix(0.01085069392704302,0,0,0.01085069392704302,0,0) ">Created by potrace 1.15, written by Peter Selinger 2001-2017</metadata>
  <g fill="#fff" id="svg_6">
   <g id="svg_4" fill="#000000" transform="matrix(0.0172775141773495,0,0,-0.01585091945600643,-4223.883581491177,-2505.894508338103) ">
    <path fill="#999999" stroke="#62612C" id="svg_5" d="m260659.517575,-165812.777466c-332,-755 -736,-1674 -898,-2043c-161,-368 -295,-671 -297,-673c-2,-2 -308,-25 -682,-52c-373,-27 -1054,-76 -1513,-109c-459,-34 -1087,-79 -1395,-101c-308,-22 -585,-43 -615,-46l-54,-6l49,-47c28,-25 336,-300 684,-611c349,-311 806,-718 1016,-905c1267,-1130 1560,-1391 1572,-1400c17,-13 74,228 -542,-2265c-256,-1036 -464,-1887 -463,-1890c2,-4 869,499 1928,1117c1058,618 1931,1122 1940,1120c8,-2 398,-242 865,-532c468,-291 1165,-724 1550,-963c385,-239 811,-504 947,-588c135,-85 249,-154 253,-154c4,0 4,17 0,38c-6,34 -411,1897 -776,3568c-87,402 -159,738 -159,747c0,13 649,563 2997,2542c258,217 261,220 230,227c-18,4 -1011,104 -2207,223c-1196,119 -2184,220 -2196,225c-15,6 -62,111 -199,446c-98,242 -412,1013 -697,1714c-285,701 -564,1388 -620,1525c-56,138 -104,253 -108,258c-3,4 -278,-610 -610,-1365z"/>
   </g>
  </g>
 </g>
</svg>